<mxfile host="app.diagrams.net" modified="2021-08-03T11:32:05.484Z" agent="5.0 (Windows)" etag="8tZVvjQgjHTUrsfOJh_z" version="14.9.3" type="github">
  <diagram id="tHBXuNAXQTGmKLuqYtSG" name="Page-1">
    <mxGraphModel dx="1038" dy="508" grid="1" gridSize="10" guides="1" tooltips="1" connect="1" arrows="1" fold="1" page="1" pageScale="1" pageWidth="1169" pageHeight="827" math="0" shadow="0">
      <root>
        <mxCell id="0" />
        <mxCell id="1" parent="0" />
        <mxCell id="mcmqCNgvJ_aKTp28pCtp-1" value="Payroll Management " style="swimlane;" vertex="1" parent="1">
          <mxGeometry x="90" y="20" width="860" height="650" as="geometry" />
        </mxCell>
        <mxCell id="mcmqCNgvJ_aKTp28pCtp-2" value="Start" style="rounded=1;whiteSpace=wrap;html=1;" vertex="1" parent="mcmqCNgvJ_aKTp28pCtp-1">
          <mxGeometry x="310" y="60" width="120" height="60" as="geometry" />
        </mxCell>
        <mxCell id="mcmqCNgvJ_aKTp28pCtp-7" value="" style="edgeStyle=orthogonalEdgeStyle;rounded=0;orthogonalLoop=1;jettySize=auto;html=1;" edge="1" parent="mcmqCNgvJ_aKTp28pCtp-1" source="mcmqCNgvJ_aKTp28pCtp-5" target="mcmqCNgvJ_aKTp28pCtp-6">
          <mxGeometry relative="1" as="geometry" />
        </mxCell>
        <mxCell id="mcmqCNgvJ_aKTp28pCtp-5" value="HRM &lt;span lang=&quot;EN-GB&quot;&gt;verifies, updates and effect any changes (including new employees) in the payroll&lt;/span&gt;" style="rounded=0;whiteSpace=wrap;html=1;" vertex="1" parent="mcmqCNgvJ_aKTp28pCtp-1">
          <mxGeometry x="280" y="180" width="180" height="70" as="geometry" />
        </mxCell>
        <mxCell id="mcmqCNgvJ_aKTp28pCtp-4" value="" style="edgeStyle=orthogonalEdgeStyle;rounded=0;orthogonalLoop=1;jettySize=auto;html=1;" edge="1" parent="mcmqCNgvJ_aKTp28pCtp-1" source="mcmqCNgvJ_aKTp28pCtp-2" target="mcmqCNgvJ_aKTp28pCtp-5">
          <mxGeometry relative="1" as="geometry">
            <mxPoint x="370" y="200" as="targetPoint" />
          </mxGeometry>
        </mxCell>
        <mxCell id="mcmqCNgvJ_aKTp28pCtp-6" value="&lt;table&gt;&lt;tbody&gt;&lt;tr&gt;&lt;td&gt;&lt;span lang=&quot;EN-GB&quot;&gt;Run the payroll and forward for approval by the CEO&lt;/span&gt;&lt;/td&gt;&lt;/tr&gt;&lt;/tbody&gt;&lt;/table&gt;" style="rounded=0;whiteSpace=wrap;html=1;" vertex="1" parent="mcmqCNgvJ_aKTp28pCtp-1">
          <mxGeometry x="280" y="330" width="180" height="70" as="geometry" />
        </mxCell>
      </root>
    </mxGraphModel>
  </diagram>
</mxfile>
